<?xml version="1.0" encoding="UTF-8" standalone="no"?>
<!-- Created with Inkscape (http://www.inkscape.org/) -->

<svg
   xmlns:dc="http://purl.org/dc/elements/1.1/"
   xmlns:cc="http://creativecommons.org/ns#"
   xmlns:rdf="http://www.w3.org/1999/02/22-rdf-syntax-ns#"
   xmlns:svg="http://www.w3.org/2000/svg"
   xmlns="http://www.w3.org/2000/svg"
   xmlns:sodipodi="http://sodipodi.sourceforge.net/DTD/sodipodi-0.dtd"
   xmlns:inkscape="http://www.inkscape.org/namespaces/inkscape"
   width="33.591999"
   height="33.591"
   id="svg3639"
   version="1.1"
   inkscape:version="0.47pre4 r22446"
   sodipodi:docname="twibs-logo.svg">
  <defs
     id="defs3641">
    <inkscape:perspective
       sodipodi:type="inkscape:persp3d"
       inkscape:vp_x="0 : 526.18109 : 1"
       inkscape:vp_y="0 : 1000 : 0"
       inkscape:vp_z="744.09448 : 526.18109 : 1"
       inkscape:persp3d-origin="372.04724 : 350.78739 : 1"
       id="perspective3647" />
    <inkscape:perspective
       id="perspective3618"
       inkscape:persp3d-origin="0.5 : 0.33333333 : 1"
       inkscape:vp_z="1 : 0.5 : 1"
       inkscape:vp_y="0 : 1000 : 0"
       inkscape:vp_x="0 : 0.5 : 1"
       sodipodi:type="inkscape:persp3d" />
  </defs>
  <sodipodi:namedview
     id="base"
     pagecolor="#ffffff"
     bordercolor="#666666"
     borderopacity="1.0"
     inkscape:pageopacity="0.0"
     inkscape:pageshadow="2"
     inkscape:zoom="3.959798"
     inkscape:cx="0.66719405"
     inkscape:cy="19.514964"
     inkscape:document-units="px"
     inkscape:current-layer="layer1"
     showgrid="false"
     inkscape:window-width="1119"
     inkscape:window-height="736"
     inkscape:window-x="361"
     inkscape:window-y="233"
     inkscape:window-maximized="0" />
  <metadata
     id="metadata3644">
    <rdf:RDF>
      <cc:Work
         rdf:about="">
        <dc:format>image/svg+xml</dc:format>
        <dc:type
           rdf:resource="http://purl.org/dc/dcmitype/StillImage" />
        <dc:title></dc:title>
      </cc:Work>
    </rdf:RDF>
  </metadata>
  <g
     inkscape:label="Ebene 1"
     inkscape:groupmode="layer"
     id="layer1"
     transform="translate(-333.204,-515.56668)">
    <path
       d="m 366.795,543.55368 c 0,3.096 -2.507,5.604 -5.602,5.604 l -22.388,0 c -3.096,0 -5.601,-2.508 -5.601,-5.604 l 0,-22.383 c 0,-3.096 2.505,-5.604 5.601,-5.604 l 22.389,0 c 3.095,0 5.602,2.508 5.602,5.604 l 0,22.383 -10e-4,0 z"
       id="path8322"
       style="fill:#80b419;fill-opacity:1;overflow:visible" />
    <g
       style="overflow:visible"
       id="g8324"
       transform="translate(303.645,494.53468)">
      <g
         id="g8326">
        <g
           id="g8328">
          <path
             d="m 49.906,43.498 c -0.424,-0.301 -0.583,-0.73 -0.356,-0.957 0.537,-0.545 1.095,-1.068 1.674,-1.568 0.246,-0.207 0.641,-0.131 0.883,0.166 0.592,0.714 1.184,1.428 1.776,2.143 0.24,0.295 0.378,0.713 0.312,0.934 -0.17,0.529 -0.315,1.062 -0.435,1.599 -0.045,0.221 -0.419,0.157 -0.841,-0.142 -1.004,-0.726 -2.008,-1.451 -3.013,-2.175 z"
             id="path8330"
             style="fill:#ffffff" />
          <path
             d="M 47.646,46.706 C 47.008,46.433 46.647,46 46.839,45.741 c 0.45,-0.62 0.925,-1.222 1.424,-1.802 0.212,-0.24 0.749,-0.191 1.201,0.109 1.096,0.719 2.192,1.438 3.288,2.156 0.449,0.299 0.788,0.721 0.762,0.945 -0.078,0.539 -0.13,1.081 -0.156,1.623 -0.005,0.224 -0.522,0.184 -1.157,-0.089 -1.518,-0.658 -3.036,-1.318 -4.555,-1.977 z"
             id="path8332"
             style="fill:#ffffff" />
        </g>
        <path
           d="m 55.627,34.928 c -0.015,-0.252 0.357,-0.539 0.833,-0.628 1.138,-0.219 2.284,-0.391 3.435,-0.514 0.481,-0.048 0.751,0.076 0.604,0.266 -0.345,0.463 -0.69,0.926 -1.035,1.389 -0.148,0.19 -0.531,0.434 -0.853,0.553 -0.789,0.282 -1.564,0.596 -2.324,0.939 -0.309,0.143 -0.57,0.062 -0.585,-0.191 -0.025,-0.605 -0.05,-1.209 -0.075,-1.814 z"
           id="path8334"
           style="fill:#ffffff" />
        <path
           d="m 49.876,36.805 c -0.213,-0.292 -0.018,-0.671 0.443,-0.831 1.099,-0.391 2.21,-0.734 3.332,-1.031 0.472,-0.123 0.886,-0.002 0.927,0.258 0.109,0.628 0.218,1.256 0.326,1.885 0.041,0.26 -0.172,0.597 -0.472,0.762 -0.733,0.391 -1.449,0.812 -2.146,1.262 -0.285,0.187 -0.684,0.106 -0.898,-0.188 -0.504,-0.706 -1.008,-1.411 -1.512,-2.117 z"
           id="path8336"
           style="fill:#ffffff" />
        <path
           d="m 44.419,39.542 c -0.422,-0.3 -0.415,-0.741 0.022,-0.97 1.042,-0.557 2.102,-1.068 3.177,-1.534 0.451,-0.193 1.014,-0.099 1.254,0.196 0.592,0.715 1.185,1.43 1.777,2.145 0.241,0.297 0.212,0.696 -0.059,0.902 -0.666,0.494 -1.313,1.016 -1.938,1.562 -0.253,0.227 -0.796,0.173 -1.219,-0.129 -1.004,-0.724 -2.009,-1.448 -3.014,-2.172 z"
           id="path8338"
           style="fill:#ffffff" />
        <path
           d="m 39.3,43.145 c -0.637,-0.272 -0.833,-0.743 -0.427,-1.042 0.965,-0.717 1.953,-1.393 2.962,-2.023 0.421,-0.262 1.135,-0.221 1.586,0.076 1.102,0.72 2.204,1.438 3.306,2.156 0.453,0.3 0.621,0.733 0.383,0.977 -0.587,0.59 -1.152,1.205 -1.693,1.844 -0.218,0.263 -0.905,0.262 -1.544,-0.012 -1.524,-0.659 -3.049,-1.317 -4.573,-1.976 z"
           id="path8340"
           style="fill:#ffffff" />
        <path
           d="m 55.491,31.628 c -0.015,-0.253 0.513,-0.492 1.178,-0.52 1.597,-0.068 3.192,-0.066 4.783,0.004 0.662,0.031 1.079,0.225 0.931,0.414 -0.345,0.463 -0.689,0.925 -1.034,1.387 -0.147,0.191 -0.677,0.366 -1.18,0.405 -1.228,0.089 -2.453,0.229 -3.671,0.423 -0.499,0.081 -0.916,-0.049 -0.931,-0.301 -0.026,-0.603 -0.051,-1.208 -0.076,-1.812 z"
           id="path8342"
           style="fill:#ffffff" />
        <path
           d="m 47.036,32.978 c -0.216,-0.293 0.144,-0.653 0.806,-0.786 1.585,-0.321 3.177,-0.575 4.771,-0.761 0.665,-0.075 1.238,0.089 1.28,0.348 0.115,0.63 0.228,1.26 0.342,1.889 0.042,0.26 -0.325,0.557 -0.819,0.674 -1.205,0.279 -2.4,0.609 -3.584,0.989 -0.485,0.158 -1.053,0.058 -1.27,-0.235 -0.508,-0.708 -1.018,-1.413 -1.526,-2.118 z"
           id="path8344"
           style="fill:#ffffff" />
        <path
           d="m 38.934,35.586 c -0.421,-0.3 -0.243,-0.748 0.401,-0.981 1.547,-0.567 3.108,-1.067 4.679,-1.5 0.657,-0.178 1.385,-0.068 1.625,0.227 0.592,0.715 1.184,1.43 1.776,2.145 0.24,0.295 0.048,0.682 -0.429,0.873 -1.163,0.46 -2.31,0.97 -3.44,1.527 -0.462,0.23 -1.177,0.184 -1.599,-0.117 -1.004,-0.725 -2.008,-1.45 -3.013,-2.174 z"
           id="path8346"
           style="fill:#ffffff" />
        <path
           d="m 31.06,39.501 c -0.634,-0.271 -0.654,-0.781 -0.034,-1.117 1.479,-0.811 2.981,-1.556 4.5,-2.233 0.636,-0.282 1.518,-0.253 1.966,0.045 1.096,0.72 2.192,1.438 3.289,2.157 0.449,0.299 0.447,0.745 -0.003,1.01 -1.098,0.637 -2.177,1.322 -3.232,2.054 -0.433,0.304 -1.296,0.336 -1.931,0.063 -1.518,-0.659 -3.037,-1.318 -4.555,-1.979 z"
           id="path8348"
           style="fill:#ffffff" />
        <g
           id="g8350">
          <path
             d="m 44.377,29.105 c -0.215,-0.294 0.31,-0.631 1.175,-0.732 2.07,-0.248 4.14,-0.406 6.206,-0.473 0.864,-0.027 1.592,0.178 1.632,0.438 0.109,0.628 0.217,1.257 0.326,1.886 0.04,0.258 -0.485,0.512 -1.178,0.58 -1.676,0.162 -3.351,0.396 -5.021,0.703 -0.688,0.128 -1.417,0.006 -1.631,-0.287 -0.502,-0.705 -1.006,-1.41 -1.509,-2.115 z"
             id="path8352"
             style="fill:#ffffff" />
          <path
             d="m 33.45,31.632 c -0.425,-0.303 -0.073,-0.756 0.781,-0.995 2.051,-0.577 4.114,-1.065 6.181,-1.463 0.862,-0.165 1.754,-0.041 1.996,0.256 0.592,0.715 1.184,1.429 1.776,2.144 0.24,0.297 -0.117,0.666 -0.799,0.844 -1.658,0.426 -3.307,0.924 -4.943,1.492 -0.67,0.234 -1.556,0.195 -1.978,-0.104 -1.006,-0.724 -2.01,-1.449 -3.014,-2.174 z"
             id="path8354"
             style="fill:#ffffff" />
        </g>
      </g>
    </g>
  </g>
</svg>
